<svg width="124" height="126" viewBox="0 0 124 126" fill="none" xmlns="http://www.w3.org/2000/svg">
<mask id="mask0_76_4846" style="mask-type:luminance" maskUnits="userSpaceOnUse" x="0" y="11" width="79" height="79">
<path d="M79 11H0V90H79V11Z" fill="white"/>
</mask>
<g mask="url(#mask0_76_4846)">
<path d="M22.7515 67.247C13.6347 58.1294 13.6347 43.3454 22.7515 34.2216L11.1636 22.6328C10.1464 23.65 9.19795 24.7171 8.31185 25.8092L12.2431 31.9438C11.1761 33.4727 10.2463 35.0703 9.47251 36.7241L2.20276 36.3871C1.1669 39.0643 0.430569 41.8289 0 44.631L6.47101 47.9759C6.31501 49.8107 6.31501 51.6579 6.47101 53.4926L0 56.8376C0.430569 59.6396 1.1669 62.4042 2.20276 65.0815L9.47251 64.7445C10.2463 66.3982 11.1761 67.9958 12.2431 69.5248L8.31185 75.6593C9.19795 76.7577 10.1464 77.8186 11.1636 78.8358C12.1807 79.853 13.2478 80.8016 14.3398 81.6878L20.4739 77.7499C22.0027 78.8171 23.6002 79.7469 25.2538 80.5208L24.9168 87.7911C27.5938 88.827 30.3582 89.5634 33.16 89.994L36.5047 83.5225C38.3393 83.6785 40.1864 83.6785 42.021 83.5225L45.3657 89.994C48.1675 89.5634 50.9319 88.827 53.6089 87.7911L53.272 80.5208C54.9256 79.7469 56.5231 78.8171 58.0519 77.7499L64.186 81.6815C65.2842 80.7953 66.345 79.8468 67.3622 78.8296L55.7743 67.2407C46.6574 76.3583 31.8746 76.3583 22.7515 67.2407V67.247Z" fill="#181D28"/>
<path d="M31.3054 58.6909C26.9123 54.2975 26.9123 47.177 31.3054 42.7836L25.7204 37.1982C25.2275 37.6912 24.7719 38.203 24.3476 38.7272L26.2446 41.6852C25.7329 42.4216 25.2836 43.1955 24.9092 43.988L21.4085 43.8258C20.9093 45.1176 20.5536 46.4468 20.3477 47.7948L23.4678 49.4049C23.3929 50.291 23.3929 51.1772 23.4678 52.0634L20.3477 53.6735C20.5536 55.0214 20.9093 56.3569 21.4085 57.6425L24.9092 57.4802C25.2836 58.279 25.7329 59.0466 26.2446 59.783L24.3476 62.7411C24.7719 63.2715 25.2337 63.7833 25.7204 64.27C26.2134 64.763 26.7251 65.2186 27.2493 65.643L30.2071 63.7458C30.9434 64.2575 31.7172 64.7069 32.5097 65.0813L32.3475 68.5823C33.6392 69.0815 34.9683 69.4373 36.3162 69.6432L37.9261 66.5229C38.8122 66.5978 39.6983 66.5978 40.5844 66.5229L42.1944 69.6432C43.5422 69.4373 44.8776 69.0815 46.1631 68.5823L46.0009 65.0813C46.7996 64.7069 47.5671 64.2575 48.3035 63.7458L51.2613 65.643C51.7917 65.2186 52.3034 64.7568 52.7901 64.27L47.2052 58.6847C42.8122 63.0781 35.6922 63.0781 31.2991 58.6847L31.3054 58.6909Z" fill="#E37727"/>
<path d="M28.6667 18.7756C28.6667 18.7756 28.5107 19.2 28.2673 19.8365C39.8178 15.7365 53.2091 18.3014 62.457 27.55C74.1385 39.2324 75.1619 57.5361 65.5271 70.3856L70.4755 75.3344C82.7998 59.7328 81.7702 37.0357 67.3679 22.6386C56.0172 11.2807 39.512 8.24147 25.3906 13.4898L26.6574 14.2013L28.6604 18.7756H28.6667Z" fill="url(#paint0_linear_76_4846)"/>
<path d="M25.9915 20.398L20.3379 23.3248C22.3285 24.86 25.1054 25.2157 27.4828 23.9863C30.7589 22.2888 32.0444 18.2574 30.3471 14.9749C28.6497 11.6985 24.6186 10.413 21.3363 12.1104C18.9526 13.3461 17.6422 15.8111 17.7482 18.3261L23.4018 15.3992L26.3721 17.028L25.9915 20.3917V20.398Z" fill="#E37727"/>
<path d="M31.4755 36.324C37.6844 32.9603 45.6031 33.8964 50.8511 39.1447C54.1771 42.471 55.7558 46.8706 55.6248 51.2266L58.177 49.7663L61.6153 50.1782L62.6075 51.1704C62.7198 45.0484 60.4484 38.8889 55.7808 34.2209C47.7997 26.2391 35.4692 25.2469 26.4023 31.2441L31.4817 36.324H31.4755Z" fill="#181D28"/>
<path d="M63.6381 49.6231C61.1108 46.9397 56.8925 46.8086 54.203 49.3298C51.5198 51.8573 51.3887 56.0759 53.9097 58.7656C56.437 61.4491 60.6553 61.5802 63.3448 59.059C66.028 56.5315 66.1591 52.3128 63.6381 49.6231ZM58.4026 57.6985L55.5509 55.6266L55.919 52.1194L59.1389 50.6903L61.9907 52.7622L61.6225 56.2694L58.4026 57.6985Z" fill="#181D28"/>
</g>
<g clip-path="url(#clip0_76_4846)">
<path d="M0.648438 103.135V100.431H13.4411V103.135H8.85169V114.21H5.24523V103.135H0.648438ZM18.886 100.431V114.21H15.2277V100.431H18.886ZM21.1825 114.21V100.431H27.4347C28.5679 100.431 29.5459 100.617 30.3686 100.989C31.1964 101.357 31.8344 101.886 32.2827 102.577C32.7311 103.263 32.9553 104.077 32.9553 105.019C32.9553 105.975 32.7262 106.787 32.268 107.455C31.8098 108.119 31.1595 108.626 30.317 108.976C29.4744 109.321 28.4767 109.494 27.3239 109.494H23.37V106.87H26.644C27.1958 106.87 27.6564 106.805 28.0259 106.675C28.4004 106.54 28.6837 106.338 28.8759 106.069C29.0679 105.795 29.164 105.446 29.164 105.019C29.164 104.593 29.0679 104.241 28.8759 103.963C28.6837 103.68 28.4004 103.47 28.0259 103.331C27.6515 103.187 27.1909 103.115 26.644 103.115H24.8407V114.21H21.1825ZM29.7035 107.913L33.4726 114.21H29.4818L25.7867 107.913H29.7035ZM34.9618 114.21V100.431H45.5152V103.135H38.62V105.961H44.9757V108.673H38.62V111.506H45.5152V114.21H34.9618ZM55.7138 100.431L59.0986 110.523H59.2242L62.609 100.431H66.7032L61.5965 114.21H56.7264L51.6195 100.431H55.7138ZM71.991 100.431V114.21H68.3328V100.431H71.991ZM82.4687 104.562C82.4194 104.068 82.2002 103.685 81.8109 103.411C81.4266 103.133 80.8773 102.994 80.163 102.994C79.6899 102.994 79.2958 103.05 78.9805 103.162C78.6652 103.274 78.4287 103.429 78.271 103.627C78.1133 103.819 78.0321 104.042 78.0271 104.293C78.0172 104.499 78.0616 104.681 78.1601 104.838C78.2636 104.995 78.4114 105.134 78.6036 105.255C78.8006 105.372 79.0372 105.475 79.313 105.564C79.5889 105.654 79.8994 105.733 80.2442 105.8L81.5449 106.069C82.2938 106.217 82.954 106.414 83.5255 106.661C84.102 106.908 84.5848 107.202 84.974 107.543C85.3682 107.883 85.6662 108.276 85.8683 108.72C86.0703 109.164 86.1737 109.662 86.1787 110.214C86.1737 111.084 85.9323 111.831 85.4544 112.454C84.9765 113.078 84.2892 113.556 83.3925 113.888C82.5007 114.219 81.4242 114.385 80.163 114.385C78.8967 114.385 77.7931 114.213 76.8521 113.867C75.911 113.522 75.1794 112.997 74.6571 112.293C74.1348 111.589 73.8664 110.698 73.8515 109.622H77.3546C77.3841 110.066 77.5147 110.436 77.7463 110.732C77.9779 111.028 78.2956 111.252 78.6997 111.405C79.1085 111.557 79.5815 111.633 80.1186 111.633C80.6113 111.633 81.0301 111.573 81.375 111.452C81.7248 111.331 81.9932 111.162 82.1805 110.947C82.3677 110.732 82.4638 110.485 82.4687 110.207C82.4638 109.947 82.3751 109.725 82.2026 109.541C82.0302 109.353 81.7641 109.191 81.4045 109.056C81.0498 108.917 80.5965 108.79 80.0447 108.673L78.4631 108.337C77.1526 108.063 76.1204 107.621 75.3666 107.011C74.6128 106.396 74.2384 105.567 74.2432 104.521C74.2384 103.669 74.4896 102.922 74.9971 102.281C75.5045 101.639 76.2067 101.139 77.1033 100.78C78 100.422 79.0223 100.242 80.1703 100.242C81.3429 100.242 82.3603 100.424 83.2226 100.787C84.0897 101.146 84.7621 101.651 85.2401 102.301C85.718 102.952 85.9619 103.705 85.9717 104.562H82.4687ZM91.6844 100.431V114.21H88.0259V100.431H91.6844ZM108.267 107.321C108.267 108.837 107.947 110.122 107.306 111.176C106.665 112.23 105.798 113.031 104.704 113.578C103.615 114.125 102.393 114.399 101.039 114.399C99.6793 114.399 98.455 114.123 97.3658 113.571C96.2767 113.02 95.4122 112.219 94.7714 111.169C94.1358 110.115 93.8184 108.832 93.8184 107.321C93.8184 105.804 94.1358 104.519 94.7714 103.465C95.4122 102.411 96.2767 101.61 97.3658 101.063C98.455 100.516 99.6793 100.242 101.039 100.242C102.393 100.242 103.615 100.516 104.704 101.063C105.798 101.61 106.665 102.411 107.306 103.465C107.947 104.519 108.267 105.804 108.267 107.321ZM104.527 107.321C104.527 106.423 104.387 105.665 104.106 105.046C103.829 104.427 103.431 103.959 102.909 103.64C102.391 103.322 101.768 103.162 101.039 103.162C100.315 103.162 99.6915 103.322 99.1686 103.64C98.6466 103.959 98.2451 104.427 97.9642 105.046C97.6884 105.665 97.5505 106.423 97.5505 107.321C97.5505 108.218 97.6884 108.976 97.9642 109.595C98.2451 110.214 98.6466 110.682 99.1686 111.001C99.6915 111.32 100.315 111.479 101.039 111.479C101.768 111.479 102.391 111.32 102.909 111.001C103.431 110.682 103.829 110.214 104.106 109.595C104.387 108.976 104.527 108.218 104.527 107.321ZM123.284 100.431V114.21H120.18L114.157 106.257H114.061V114.21H110.402V100.431H113.551L119.507 108.37H119.633V100.431H123.284Z" fill="#181D28"/>
</g>
<defs>
<linearGradient id="paint0_linear_76_4846" x1="39.824" y1="3.02431" x2="79.5537" y2="82.2652" gradientUnits="userSpaceOnUse">
<stop stop-color="#E37727"/>
<stop offset="1" stop-color="#E37727"/>
</linearGradient>
<clipPath id="clip0_76_4846">
<rect width="124" height="15" fill="white" transform="translate(0 100)"/>
</clipPath>
</defs>
</svg>
