<svg width="519" height="79" viewBox="0 0 519 79" fill="none" xmlns="http://www.w3.org/2000/svg">
<mask id="mask0_81_4870" style="mask-type:luminance" maskUnits="userSpaceOnUse" x="0" y="0" width="79" height="79">
<path d="M79 0H0V79H79V0Z" fill="white"/>
</mask>
<g mask="url(#mask0_81_4870)">
<path d="M22.7515 56.247C13.6347 47.1294 13.6347 32.3454 22.7515 23.2216L11.1636 11.6328C10.1464 12.65 9.19795 13.7171 8.31185 14.8092L12.2431 20.9438C11.1761 22.4727 10.2463 24.0703 9.47251 25.7241L2.20276 25.3871C1.1669 28.0643 0.430569 30.8289 0 33.631L6.47101 36.9759C6.31501 38.8107 6.31501 40.6579 6.47101 42.4926L0 45.8376C0.430569 48.6396 1.1669 51.4042 2.20276 54.0815L9.47251 53.7445C10.2463 55.3982 11.1761 56.9958 12.2431 58.5248L8.31185 64.6593C9.19795 65.7577 10.1464 66.8186 11.1636 67.8358C12.1807 68.853 13.2478 69.8016 14.3398 70.6878L20.4739 66.7499C22.0027 67.8171 23.6002 68.7469 25.2538 69.5208L24.9168 76.7911C27.5938 77.827 30.3582 78.5634 33.16 78.994L36.5047 72.5225C38.3393 72.6785 40.1864 72.6785 42.021 72.5225L45.3657 78.994C48.1675 78.5634 50.9319 77.827 53.6089 76.7911L53.272 69.5208C54.9256 68.7469 56.5231 67.8171 58.0519 66.7499L64.186 70.6815C65.2842 69.7953 66.345 68.8468 67.3622 67.8296L55.7743 56.2407C46.6574 65.3583 31.8746 65.3583 22.7515 56.2407V56.247Z" fill="url(#paint0_linear_81_4870)"/>
<path d="M31.3054 47.6909C26.9123 43.2975 26.9123 36.177 31.3054 31.7836L25.7204 26.1982C25.2275 26.6912 24.7719 27.203 24.3476 27.7272L26.2446 30.6852C25.7329 31.4216 25.2836 32.1955 24.9092 32.988L21.4085 32.8258C20.9093 34.1176 20.5536 35.4468 20.3477 36.7948L23.4678 38.4049C23.3929 39.291 23.3929 40.1772 23.4678 41.0634L20.3477 42.6735C20.5536 44.0214 20.9093 45.3569 21.4085 46.6425L24.9092 46.4802C25.2836 47.279 25.7329 48.0466 26.2446 48.783L24.3476 51.7411C24.7719 52.2715 25.2337 52.7833 25.7204 53.27C26.2134 53.763 26.7251 54.2186 27.2493 54.643L30.2071 52.7458C30.9434 53.2575 31.7172 53.7069 32.5097 54.0813L32.3475 57.5823C33.6392 58.0815 34.9683 58.4373 36.3162 58.6432L37.9261 55.5229C38.8122 55.5978 39.6983 55.5978 40.5844 55.5229L42.1944 58.6432C43.5422 58.4373 44.8776 58.0815 46.1631 57.5823L46.0009 54.0813C46.7996 53.7069 47.5671 53.2575 48.3035 52.7458L51.2613 54.643C51.7917 54.2186 52.3034 53.7568 52.7901 53.27L47.2052 47.6847C42.8122 52.0781 35.6922 52.0781 31.2991 47.6847L31.3054 47.6909Z" fill="url(#paint1_linear_81_4870)"/>
<path fill-rule="evenodd" clip-rule="evenodd" d="M28.2241 1.55654C26.2549 0.191295 23.6151 -0.0681079 21.3363 1.11041C18.9526 2.34605 17.6422 4.81109 17.7482 7.32606L23.4018 4.39921L26.3721 6.02802L25.9915 9.39171V9.39795L20.3379 12.3248C22.3285 13.86 25.1054 14.2157 27.4828 12.9863C29.4756 11.9538 30.7318 10.0576 31.0282 7.99171C41.9018 5.18202 53.9376 8.02988 62.457 16.55C74.1385 28.2324 75.1619 46.5361 65.5271 59.3856L70.4755 64.3344C82.7998 48.7328 81.7702 26.0357 67.3679 11.6386C56.7686 1.03249 41.6746 -2.31972 28.2241 1.55654Z" fill="url(#paint2_linear_81_4870)"/>
<path fill-rule="evenodd" clip-rule="evenodd" d="M31.4796 25.3219C31.4782 25.3226 31.4769 25.3233 31.4755 25.324H31.4817L31.4796 25.3219ZM55.4681 37.3952C54.9881 34.0112 53.4552 30.749 50.8511 28.1447C45.6043 22.8976 37.6879 21.9607 31.4796 25.3219L26.4023 20.2441C35.4692 14.2469 47.7997 15.2391 55.7808 23.2209C59.8125 27.2529 62.0564 32.3976 62.5207 37.6697C62.919 37.9401 63.2942 38.258 63.6381 38.6231C66.1591 41.3128 66.028 45.5315 63.3448 48.059C60.6553 50.5802 56.437 50.4491 53.9097 47.7656C51.3887 45.0759 51.5198 40.8573 54.203 38.3298C54.5955 37.9619 55.0205 37.6505 55.4681 37.3952ZM55.5509 44.6266L58.4026 46.6985L61.6225 45.2694L61.9907 41.7622L59.1389 39.6903L55.919 41.1194L55.5509 44.6266Z" fill="url(#paint3_linear_81_4870)"/>
</g>
<g clip-path="url(#clip0_81_4870)">
<path d="M101 24.1176V15.1263H144.604V24.1176H128.961V60.9327H116.668V24.1176H101ZM163.162 15.1263V60.9327H150.693V15.1263H163.162ZM170.99 60.9327V15.1263H192.301C196.163 15.1263 199.497 15.7451 202.301 16.9827C205.122 18.2054 207.297 19.9648 208.825 22.2611C210.353 24.5425 211.117 27.2488 211.117 30.3801C211.117 33.5562 210.337 36.2551 208.775 38.4768C207.213 40.6836 204.996 42.3684 202.125 43.5315C199.253 44.6797 195.852 45.2539 191.923 45.2539H178.446V36.5309H189.605C191.486 36.5309 193.056 36.3147 194.316 35.8823C195.592 35.435 196.558 34.764 197.213 33.8693C197.867 32.9597 198.195 31.7967 198.195 30.3801C198.195 28.9636 197.867 27.7931 197.213 26.8686C196.558 25.9292 195.592 25.2284 194.316 24.7662C193.039 24.289 191.469 24.0504 189.605 24.0504H183.459V60.9327H170.99ZM200.034 39.9976L212.881 60.9327H199.278L186.683 39.9976H200.034ZM217.956 60.9327V15.1263H253.928V24.1176H230.426V33.5115H252.089V42.5251H230.426V51.9415H253.928V60.9327H217.956ZM288.689 15.1263L300.226 48.6758H300.655L312.192 15.1263H326.147L308.741 60.9327H292.141L274.734 15.1263H288.689ZM344.17 15.1263V60.9327H331.701V15.1263H344.17ZM379.883 28.8592C379.715 27.219 378.968 25.9441 377.641 25.0346C376.331 24.1101 374.459 23.6479 372.024 23.6479C370.412 23.6479 369.068 23.8343 367.993 24.207C366.919 24.5798 366.113 25.0942 365.575 25.7503C365.038 26.3915 364.761 27.1296 364.744 27.9646C364.71 28.6505 364.862 29.2544 365.197 29.7763C365.55 30.2981 366.054 30.7604 366.709 31.163C367.381 31.5507 368.187 31.8936 369.127 32.1918C370.067 32.49 371.126 32.751 372.301 32.9747L376.734 33.8693C379.287 34.3614 381.537 35.0175 383.485 35.8376C385.45 36.6577 387.096 37.6343 388.422 38.7676C389.766 39.9008 390.782 41.2056 391.47 42.6818C392.159 44.158 392.512 45.8129 392.529 47.647C392.512 50.5398 391.689 53.0224 390.06 55.0951C388.431 57.1675 386.088 58.7558 383.032 59.8591C379.992 60.9626 376.323 61.5142 372.024 61.5142C367.708 61.5142 363.946 60.94 360.739 59.7919C357.531 58.6437 355.038 56.8993 353.257 54.5582C351.477 52.2173 350.562 49.2573 350.512 45.6788H362.452C362.553 47.155 362.998 48.3852 363.787 49.3694C364.576 50.3535 365.659 51.0988 367.036 51.6058C368.43 52.1128 370.042 52.3663 371.873 52.3663C373.552 52.3663 374.98 52.1651 376.155 51.7625C377.347 51.3599 378.262 50.8007 378.901 50.085C379.539 49.3691 379.866 48.549 379.883 47.6247C379.866 46.7597 379.564 46.0218 378.976 45.4103C378.389 44.7841 377.482 44.2472 376.256 43.8C375.047 43.3379 373.502 42.9127 371.621 42.5251L366.23 41.4069C361.763 40.4973 358.245 39.0285 355.676 37.0006C353.106 34.9578 351.83 32.1993 351.847 28.725C351.83 25.892 352.686 23.4093 354.416 21.277C356.146 19.1447 358.539 17.4822 361.595 16.2893C364.652 15.0964 368.136 14.5 372.049 14.5C376.046 14.5 379.514 15.1039 382.453 16.3117C385.408 17.5045 387.7 19.182 389.329 21.3441C390.958 23.5062 391.79 26.0112 391.823 28.8592H379.883ZM411.295 15.1263V60.9327H398.825V15.1263H411.295ZM467.815 38.0295C467.815 43.0694 466.724 47.3413 464.54 50.8453C462.356 54.3495 459.4 57.0111 455.673 58.8303C451.961 60.6492 447.796 61.5588 443.18 61.5588C438.545 61.5588 434.372 60.6419 430.66 58.8077C426.948 56.9739 424.001 54.3123 421.817 50.823C419.65 47.319 418.568 43.0544 418.568 38.0295C418.568 32.9896 419.65 28.7176 421.817 25.2135C424.001 21.7094 426.948 19.0478 430.66 17.2287C434.372 15.4096 438.545 14.5 443.18 14.5C447.796 14.5 451.961 15.4096 455.673 17.2287C459.4 19.0478 462.356 21.7094 464.54 25.2135C466.724 28.7176 467.815 32.9896 467.815 38.0295ZM455.067 38.0295C455.067 35.0473 454.591 32.5273 453.634 30.4696C452.691 28.4119 451.331 26.8537 449.552 25.795C447.788 24.7364 445.665 24.207 443.18 24.207C440.712 24.207 438.587 24.7364 436.805 25.795C435.025 26.8537 433.657 28.4119 432.699 30.4696C431.759 32.5273 431.289 35.0473 431.289 38.0295C431.289 41.0117 431.759 43.5315 432.699 45.5893C433.657 47.647 435.025 49.2051 436.805 50.264C438.587 51.3226 440.712 51.852 443.18 51.852C445.665 51.852 447.788 51.3226 449.552 50.264C451.331 49.2051 452.691 47.647 453.634 45.5893C454.591 43.5315 455.067 41.0117 455.067 38.0295ZM519 15.1263V60.9327H508.422L487.892 34.4956H487.564V60.9327H475.094V15.1263H485.826L506.128 41.5187H506.557V15.1263H519Z" fill="url(#paint4_linear_81_4870)"/>
</g>
<defs>
<linearGradient id="paint0_linear_81_4870" x1="3.71287" y1="15.5581" x2="54.9187" y2="91.615" gradientUnits="userSpaceOnUse">
<stop stop-color="white"/>
<stop offset="0.47" stop-color="#363D4C"/>
<stop offset="1" stop-color="#181D28"/>
</linearGradient>
<linearGradient id="paint1_linear_81_4870" x1="29.0815" y1="22.1771" x2="46.8709" y2="64.7507" gradientUnits="userSpaceOnUse">
<stop stop-color="#FFD549"/>
<stop offset="1" stop-color="#E37727"/>
</linearGradient>
<linearGradient id="paint2_linear_81_4870" x1="34.2346" y1="-7.97569" x2="70.72" y2="75.1757" gradientUnits="userSpaceOnUse">
<stop stop-color="#FFD549"/>
<stop offset="1" stop-color="#E37727"/>
</linearGradient>
<linearGradient id="paint3_linear_81_4870" x1="28.5544" y1="18.3359" x2="52.3448" y2="59.5409" gradientUnits="userSpaceOnUse">
<stop stop-color="white"/>
<stop offset="0.47" stop-color="#363D4C"/>
<stop offset="1" stop-color="#181D28"/>
</linearGradient>
<linearGradient id="paint4_linear_81_4870" x1="310.792" y1="-14.2619" x2="310.792" y2="92.4487" gradientUnits="userSpaceOnUse">
<stop stop-color="white"/>
<stop offset="1" stop-color="#495061"/>
</linearGradient>
<clipPath id="clip0_81_4870">
<rect width="418" height="50" fill="white" transform="translate(101 14.5)"/>
</clipPath>
</defs>
</svg>
