<svg width="55" height="62" viewBox="0 0 55 62" fill="none" xmlns="http://www.w3.org/2000/svg">
<g clip-path="url(#clip0_23_718)">
<path d="M51.8839 0H3.11606C1.39511 0 0 1.39328 0 3.11197V58.888C0 60.6067 1.39511 62 3.11606 62H51.8839C53.6049 62 55 60.6067 55 58.888V3.11197C55 1.39328 53.6049 0 51.8839 0Z" fill="#F5F5F5"/>
<path opacity="0.39" d="M42.0303 5.28223H12.9071C8.3486 5.28223 4.6532 8.97278 4.6532 13.5253V48.4803C4.6532 53.0328 8.3486 56.7234 12.9071 56.7234H42.0303C46.5888 56.7234 50.2842 53.0328 50.2842 48.4803V13.5253C50.2842 8.97278 46.5888 5.28223 42.0303 5.28223Z" fill="#7BA0D4"/>
<path opacity="0.47" d="M51.0398 57.1654H4.02271V45.2691L12.1516 34.6583C12.4034 34.2997 12.7268 33.997 13.1014 33.7693C13.476 33.5415 13.8937 33.3937 14.3283 33.335C14.763 33.2764 15.205 33.3082 15.6268 33.4284C16.0485 33.5487 16.4407 33.7548 16.7788 34.0338L24.2563 40.0548C24.4335 40.2031 24.6603 40.279 24.8912 40.2674C25.1221 40.2559 25.3402 40.1576 25.5016 39.9923L36.2567 29.5844C36.7947 29.0467 37.4345 28.6215 38.1388 28.3334C38.843 28.0453 39.5977 27.9001 40.3588 27.9064C41.1198 27.9127 41.872 28.0703 42.5714 28.3701C43.2708 28.6698 43.9035 29.1056 44.4325 29.652L51.0398 36.2559V57.1654ZM5.40878 55.6042H49.6589V36.9376L43.5154 30.7969C43.1049 30.3706 42.6132 30.0304 42.0692 29.7965C41.5253 29.5625 40.94 29.4395 40.3477 29.4347C39.7555 29.4298 39.1683 29.5432 38.6206 29.7682C38.0728 29.9932 37.5756 30.3253 37.1582 30.7449L26.4083 41.1788C26.0232 41.569 25.5057 41.8009 24.9578 41.8289C24.4099 41.8568 23.8715 41.6787 23.4486 41.3297L15.9711 35.3088C15.769 35.141 15.5343 35.017 15.2817 34.9444C15.0292 34.8718 14.7644 34.8522 14.5039 34.8869C14.2435 34.9216 13.993 35.0099 13.7684 35.1461C13.5438 35.2823 13.3499 35.4635 13.1989 35.6782L5.38273 45.8468L5.40878 55.6042Z" fill="#F5F5F5"/>
<path opacity="0.47" d="M30.28 26.436C27.0962 26.436 24.5012 23.5166 24.5012 19.9206C24.5012 16.3247 27.1066 13.4053 30.28 13.4053C33.4534 13.4053 36.0432 16.3299 36.0432 19.9258C36.0432 23.5218 33.469 26.436 30.28 26.436ZM30.28 14.9873C27.857 14.9873 25.8873 17.2094 25.8873 19.9415C25.8873 22.6735 27.857 24.8956 30.28 24.8956C32.703 24.8956 34.6779 22.6735 34.6779 19.9415C34.6779 17.2094 32.703 14.9665 30.28 14.9665V14.9873Z" fill="#F5F5F5"/>
</g>
<defs>
<clipPath id="clip0_23_718">
<rect width="55" height="62" fill="white"/>
</clipPath>
</defs>
</svg>
