<svg width="153" height="22" viewBox="0 0 153 22" fill="none" xmlns="http://www.w3.org/2000/svg">
<mask id="mask0_76_4893" style="mask-type:luminance" maskUnits="userSpaceOnUse" x="0" y="0" width="23" height="22">
<path d="M22.5 0H0.5V22H22.5V0Z" fill="white"/>
</mask>
<g mask="url(#mask0_76_4893)">
<path d="M6.83586 15.6644C4.297 13.1254 4.297 9.0083 6.83586 6.46749L3.60885 3.24023C3.32558 3.52351 3.06145 3.82067 2.81469 4.1248L3.90947 5.83317C3.61233 6.25894 3.3534 6.70384 3.13791 7.16439L1.11343 7.07055C0.824959 7.8161 0.619905 8.58598 0.5 9.36632L2.30205 10.2978C2.25861 10.8088 2.25861 11.3232 2.30205 11.8341L0.5 12.7656C0.619905 13.5459 0.824959 14.3158 1.11343 15.0614L3.13791 14.9675C3.3534 15.4281 3.61233 15.873 3.90947 16.2988L2.81469 18.0071C3.06145 18.313 3.32558 18.6084 3.60885 18.8917C3.89209 19.175 4.18926 19.4391 4.49336 19.6859L6.20159 18.5893C6.62733 18.8865 7.07221 19.1454 7.5327 19.3609L7.43886 21.3856C8.18435 21.6741 8.95418 21.8791 9.73443 21.999L10.6659 20.1969C11.1768 20.2403 11.6911 20.2403 12.2021 20.1969L13.1335 21.999C13.9137 21.8791 14.6836 21.6741 15.4291 21.3856L15.3352 19.3609C15.7957 19.1454 16.2406 18.8865 16.6664 18.5893L18.3746 19.6842C18.6804 19.4374 18.9758 19.1732 19.2591 18.89L16.0321 15.6627C13.4932 18.2018 9.37647 18.2018 6.83586 15.6627V15.6644Z" fill="#181D28"/>
<path d="M9.21948 13.2812C7.99608 12.0577 7.99608 10.0748 9.21948 8.85133L7.66416 7.2959C7.5269 7.43319 7.40002 7.57572 7.28186 7.7217L7.81014 8.54544C7.66764 8.75052 7.54252 8.96603 7.43826 9.18673L6.46338 9.14156C6.32436 9.5013 6.22531 9.87146 6.16797 10.2469L7.03686 10.6952C7.016 10.942 7.016 11.1888 7.03686 11.4356L6.16797 11.884C6.22531 12.2593 6.32436 12.6312 6.46338 12.9892L7.43826 12.9441C7.54252 13.1665 7.66764 13.3803 7.81014 13.5853L7.28186 14.4091C7.40002 14.5568 7.52863 14.6993 7.66416 14.8349C7.80145 14.9722 7.94395 15.099 8.08993 15.2172L8.91362 14.6889C9.11867 14.8314 9.33416 14.9565 9.55485 15.0608L9.50969 16.0358C9.8694 16.1748 10.2395 16.2739 10.6149 16.3312L11.0632 15.4623C11.31 15.4831 11.5567 15.4831 11.8035 15.4623L12.2519 16.3312C12.6272 16.2739 12.9991 16.1748 13.3571 16.0358L13.3119 15.0608C13.5343 14.9565 13.7481 14.8314 13.9531 14.6889L14.7768 15.2172C14.9245 15.099 15.067 14.9704 15.2026 14.8349L13.6473 13.2795C12.4239 14.503 10.4411 14.503 9.21773 13.2795L9.21948 13.2812Z" fill="#E37727"/>
<path d="M8.48264 2.16591C8.48264 2.16591 8.4392 2.28409 8.37142 2.46135C11.588 1.31956 15.3172 2.03383 17.8926 4.6094C21.1457 7.86273 21.4307 12.96 18.7476 16.5383L20.1256 17.9164C23.5577 13.5717 23.271 7.25099 19.2602 3.24167C16.0992 0.0787004 11.5029 -0.767654 7.57031 0.693914L7.92309 0.892034L8.48089 2.16591H8.48264Z" fill="url(#paint0_linear_76_4893)"/>
<path d="M7.73867 2.61809L6.16425 3.43317C6.71859 3.8607 7.49191 3.95975 8.15397 3.61739C9.0663 3.14467 9.42429 2.02199 8.95162 1.10786C8.47893 0.195466 7.35634 -0.162539 6.44229 0.310168C5.77847 0.654271 5.41355 1.34074 5.44307 2.04111L7.01749 1.22604L7.84466 1.67963L7.73867 2.61635V2.61809Z" fill="#E37727"/>
<path d="M9.26435 7.05289C10.9934 6.11617 13.1986 6.37685 14.6601 7.83841C15.5863 8.76472 16.026 9.98992 15.9895 11.203L16.7002 10.7963L17.6577 10.911L17.934 11.1873C17.9653 9.48247 17.3328 7.76717 16.0329 6.46722C13.8103 4.24444 10.3765 3.96813 7.85156 5.63824L9.26608 7.05289H9.26435Z" fill="#181D28"/>
<path d="M18.2205 10.7562C17.5167 10.0089 16.342 9.97237 15.593 10.6745C14.8458 11.3783 14.8093 12.5531 15.5114 13.3022C16.2152 14.0495 17.3899 14.086 18.1388 13.3839C18.8861 12.68 18.9226 11.5052 18.2205 10.7562ZM16.7625 13.005L15.9684 12.428L16.0709 11.4513L16.9676 11.0534L17.7618 11.6303L17.6592 12.607L16.7625 13.005Z" fill="#181D28"/>
</g>
<g clip-path="url(#clip0_76_4893)">
<path d="M29.1484 6.63543V3.93058H41.9411V6.63543H37.3517V17.7105H33.7452V6.63543H29.1484ZM47.386 3.93058V17.7105H43.7277V3.93058H47.386ZM49.6825 17.7105V3.93058H55.9347C57.0679 3.93058 58.0459 4.11674 58.8686 4.48905C59.6964 4.85687 60.3344 5.38617 60.7827 6.07696C61.2311 6.76327 61.4553 7.57741 61.4553 8.5194C61.4553 9.47484 61.2262 10.2867 60.768 10.9551C60.3098 11.619 59.6595 12.1258 58.817 12.4757C57.9744 12.8211 56.9767 12.9939 55.8239 12.9939H51.87V10.3697H55.144C55.6958 10.3697 56.1564 10.3047 56.5259 10.1746C56.9004 10.04 57.1837 9.83818 57.3759 9.56904C57.5679 9.29542 57.664 8.94554 57.664 8.5194C57.664 8.09326 57.5679 7.74114 57.3759 7.46303C57.1837 7.18043 56.9004 6.96961 56.5259 6.83055C56.1515 6.68701 55.6909 6.61524 55.144 6.61524H53.3407V17.7105H49.6825ZM58.2035 11.4126L61.9726 17.7105H57.9818L54.2867 11.4126H58.2035ZM63.4618 17.7105V3.93058H74.0152V6.63543H67.12V9.46139H73.4757V12.173H67.12V15.0057H74.0152V17.7105H63.4618ZM84.2138 3.93058L87.5986 14.0233H87.7242L91.109 3.93058H95.2032L90.0965 17.7105H85.2264L80.1195 3.93058H84.2138ZM100.491 3.93058V17.7105H96.8328V3.93058H100.491ZM110.969 8.06187C110.919 7.56844 110.7 7.18492 110.311 6.91129C109.927 6.63319 109.377 6.49413 108.663 6.49413C108.19 6.49413 107.796 6.5502 107.48 6.66234C107.165 6.77449 106.929 6.92924 106.771 7.12661C106.613 7.31949 106.532 7.54153 106.527 7.79273C106.517 7.99906 106.562 8.18074 106.66 8.33773C106.764 8.49473 106.911 8.63378 107.104 8.7549C107.301 8.87153 107.537 8.97469 107.813 9.06441C108.089 9.15412 108.399 9.23262 108.744 9.2999L110.045 9.56904C110.794 9.71707 111.454 9.91444 112.026 10.1611C112.602 10.4079 113.085 10.7017 113.474 11.0426C113.868 11.3835 114.166 11.776 114.368 12.2201C114.57 12.6642 114.674 13.162 114.679 13.7138C114.674 14.584 114.432 15.3309 113.954 15.9544C113.476 16.5778 112.789 17.0556 111.893 17.3875C111.001 17.7195 109.924 17.8854 108.663 17.8854C107.397 17.8854 106.293 17.7127 105.352 17.3673C104.411 17.0219 103.679 16.4971 103.157 15.7929C102.635 15.0886 102.366 14.1982 102.352 13.1217H105.855C105.884 13.5658 106.015 13.9359 106.246 14.2319C106.478 14.528 106.796 14.7522 107.2 14.9047C107.609 15.0572 108.082 15.1335 108.619 15.1335C109.111 15.1335 109.53 15.0729 109.875 14.9518C110.225 14.8307 110.493 14.6625 110.681 14.4472C110.868 14.2318 110.964 13.9851 110.969 13.7071C110.964 13.4469 110.875 13.2249 110.703 13.0409C110.53 12.8525 110.264 12.691 109.905 12.5565C109.55 12.4175 109.097 12.2896 108.545 12.173L106.963 11.8366C105.653 11.5629 104.62 11.1211 103.867 10.511C103.113 9.89649 102.738 9.06665 102.743 8.02149C102.738 7.16922 102.99 6.42236 103.497 5.78091C104.005 5.13946 104.707 4.63932 105.603 4.28046C106.5 3.92161 107.522 3.74219 108.67 3.74219C109.843 3.74219 110.86 3.92386 111.723 4.28719C112.59 4.64604 113.262 5.15068 113.74 5.8011C114.218 6.45152 114.462 7.2051 114.472 8.06187H110.969ZM120.184 3.93058V17.7105H116.526V3.93058H120.184ZM136.767 10.8205C136.767 12.3367 136.447 13.6218 135.806 14.6759C135.165 15.7301 134.298 16.5308 133.204 17.078C132.115 17.6252 130.893 17.8989 129.539 17.8989C128.179 17.8989 126.955 17.623 125.866 17.0713C124.777 16.5196 123.912 15.7189 123.271 14.6692C122.636 13.6151 122.318 12.3322 122.318 10.8205C122.318 9.30439 122.636 8.01925 123.271 6.96512C123.912 5.911 124.777 5.11031 125.866 4.56306C126.955 4.01581 128.179 3.74219 129.539 3.74219C130.893 3.74219 132.115 4.01581 133.204 4.56306C134.298 5.11031 135.165 5.911 135.806 6.96512C136.447 8.01925 136.767 9.30439 136.767 10.8205ZM133.027 10.8205C133.027 9.9234 132.887 9.16534 132.606 8.54632C132.329 7.92729 131.931 7.45854 131.409 7.14006C130.891 6.82159 130.268 6.66234 129.539 6.66234C128.815 6.66234 128.191 6.82159 127.669 7.14006C127.147 7.45854 126.745 7.92729 126.464 8.54632C126.188 9.16534 126.051 9.9234 126.051 10.8205C126.051 11.7177 126.188 12.4757 126.464 13.0948C126.745 13.7138 127.147 14.1825 127.669 14.501C128.191 14.8195 128.815 14.9788 129.539 14.9788C130.268 14.9788 130.891 14.8195 131.409 14.501C131.931 14.1825 132.329 13.7138 132.606 13.0948C132.887 12.4757 133.027 11.7177 133.027 10.8205ZM151.784 3.93058V17.7105H148.68L142.657 9.75744H142.561V17.7105H138.902V3.93058H142.051L148.007 11.8702H148.133V3.93058H151.784Z" fill="#181D28"/>
</g>
<defs>
<linearGradient id="paint0_linear_76_4893" x1="11.5897" y1="-2.22053" x2="22.6537" y2="19.8465" gradientUnits="userSpaceOnUse">
<stop stop-color="#E37727"/>
<stop offset="1" stop-color="#E37727"/>
</linearGradient>
<clipPath id="clip0_76_4893">
<rect width="124" height="15" fill="white" transform="translate(28.5 3.5)"/>
</clipPath>
</defs>
</svg>
