<svg width="142" height="126" viewBox="0 0 142 126" fill="none" xmlns="http://www.w3.org/2000/svg">
<mask id="mask0_76_4846" style="mask-type:luminance" maskUnits="userSpaceOnUse" x="0" y="10" width="79" height="79">
<path d="M79 10H0V89H79V10Z" fill="white"/>
</mask>
<g mask="url(#mask0_76_4846)">
<path d="M22.7515 66.247C13.6347 57.1294 13.6347 42.3454 22.7515 33.2216L11.1636 21.6328C10.1464 22.65 9.19795 23.7171 8.31185 24.8092L12.2431 30.9438C11.1761 32.4727 10.2463 34.0703 9.47251 35.7241L2.20276 35.3871C1.1669 38.0643 0.430569 40.8289 0 43.631L6.47101 46.9759C6.31501 48.8107 6.31501 50.6579 6.47101 52.4926L0 55.8376C0.430569 58.6396 1.1669 61.4042 2.20276 64.0815L9.47251 63.7445C10.2463 65.3982 11.1761 66.9958 12.2431 68.5248L8.31185 74.6593C9.19795 75.7577 10.1464 76.8186 11.1636 77.8358C12.1807 78.853 13.2478 79.8016 14.3398 80.6878L20.4739 76.7499C22.0027 77.8171 23.6002 78.7469 25.2538 79.5208L24.9168 86.7911C27.5938 87.827 30.3582 88.5634 33.16 88.994L36.5047 82.5225C38.3393 82.6785 40.1864 82.6785 42.021 82.5225L45.3657 88.994C48.1675 88.5634 50.9319 87.827 53.6089 86.7911L53.272 79.5208C54.9256 78.7469 56.5231 77.8171 58.0519 76.7499L64.186 80.6815C65.2842 79.7953 66.345 78.8468 67.3622 77.8296L55.7743 66.2407C46.6574 75.3583 31.8746 75.3583 22.7515 66.2407V66.247Z" fill="url(#paint0_linear_76_4846)"/>
<path d="M31.3054 57.6909C26.9123 53.2975 26.9123 46.177 31.3054 41.7836L25.7204 36.1982C25.2275 36.6912 24.7719 37.203 24.3476 37.7272L26.2446 40.6852C25.7329 41.4216 25.2836 42.1955 24.9092 42.988L21.4085 42.8258C20.9093 44.1176 20.5536 45.4468 20.3477 46.7948L23.4678 48.4049C23.3929 49.291 23.3929 50.1772 23.4678 51.0634L20.3477 52.6735C20.5536 54.0214 20.9093 55.3569 21.4085 56.6425L24.9092 56.4802C25.2836 57.279 25.7329 58.0466 26.2446 58.783L24.3476 61.7411C24.7719 62.2715 25.2337 62.7833 25.7204 63.27C26.2134 63.763 26.7251 64.2186 27.2493 64.643L30.2071 62.7458C30.9434 63.2575 31.7172 63.7069 32.5097 64.0813L32.3475 67.5823C33.6392 68.0815 34.9683 68.4373 36.3162 68.6432L37.9261 65.5229C38.8122 65.5978 39.6983 65.5978 40.5844 65.5229L42.1944 68.6432C43.5422 68.4373 44.8776 68.0815 46.1631 67.5823L46.0009 64.0813C46.7996 63.7069 47.5671 63.2575 48.3035 62.7458L51.2613 64.643C51.7917 64.2186 52.3034 63.7568 52.7901 63.27L47.2052 57.6847C42.8122 62.0781 35.6922 62.0781 31.2991 57.6847L31.3054 57.6909Z" fill="url(#paint1_linear_76_4846)"/>
<path fill-rule="evenodd" clip-rule="evenodd" d="M28.2241 11.5565C26.2549 10.1913 23.6151 9.93189 21.3363 11.1104C18.9526 12.3461 17.6422 14.8111 17.7482 17.3261L23.4018 14.3992L26.3721 16.028L25.9915 19.3917V19.398L20.3379 22.3248C22.3285 23.86 25.1054 24.2157 27.4828 22.9863C29.4756 21.9538 30.7318 20.0576 31.0282 17.9917C41.9018 15.182 53.9376 18.0299 62.457 26.55C74.1385 38.2324 75.1619 56.5361 65.5271 69.3856L70.4755 74.3344C82.7998 58.7328 81.7702 36.0357 67.3679 21.6386C56.7686 11.0325 41.6746 7.68028 28.2241 11.5565Z" fill="url(#paint2_linear_76_4846)"/>
<path fill-rule="evenodd" clip-rule="evenodd" d="M31.4796 35.3219C31.4782 35.3226 31.4769 35.3233 31.4755 35.324H31.4817L31.4796 35.3219ZM55.4681 47.3952C54.9881 44.0112 53.4552 40.749 50.8511 38.1447C45.6043 32.8976 37.6879 31.9607 31.4796 35.3219L26.4023 30.2441C35.4692 24.2469 47.7997 25.2391 55.7808 33.2209C59.8125 37.2529 62.0564 42.3976 62.5207 47.6697C62.919 47.9401 63.2942 48.258 63.6381 48.6231C66.1591 51.3128 66.028 55.5315 63.3448 58.059C60.6553 60.5802 56.437 60.4491 53.9097 57.7656C51.3887 55.0759 51.5198 50.8573 54.203 48.3298C54.5955 47.9619 55.0205 47.6505 55.4681 47.3952ZM55.5509 54.6266L58.4026 56.6985L61.6225 55.2694L61.9907 51.7622L59.1389 49.6903L55.919 51.1194L55.5509 54.6266Z" fill="url(#paint3_linear_76_4846)"/>
</g>
<path d="M0 102.27V99.2129H14.8127V102.27H9.4986V114.787H5.32266V102.27H0ZM21.1174 99.2129V114.787H16.8814V99.2129H21.1174ZM23.7765 114.787V99.2129H31.016C32.3281 99.2129 33.4606 99.4233 34.4132 99.8441C35.3717 100.26 36.1105 100.858 36.6296 101.639C37.1488 102.414 37.4083 103.335 37.4083 104.399C37.4083 105.479 37.143 106.397 36.6125 107.152C36.082 107.902 35.3289 108.475 34.3534 108.871C33.3778 109.261 32.2226 109.456 30.8877 109.456H26.3095V106.491H30.1004C30.7394 106.491 31.2727 106.417 31.7005 106.27C32.1342 106.118 32.4622 105.89 32.6847 105.586C32.9071 105.276 33.0184 104.881 33.0184 104.399C33.0184 103.918 32.9071 103.52 32.6847 103.205C32.4622 102.886 32.1342 102.648 31.7005 102.491C31.267 102.328 30.7336 102.247 30.1004 102.247H28.0123V114.787H23.7765ZM33.6431 107.669L38.0073 114.787H33.3864L29.1078 107.669H33.6431ZM39.7316 114.787V99.2129H51.9515V102.27H43.9675V105.464H51.3268V108.529H43.9675V111.73H51.9515V114.787H39.7316ZM63.7605 99.2129L67.6798 110.62H67.8253L71.7445 99.2129H76.4853L70.5722 114.787H64.933L59.0198 99.2129H63.7605ZM82.608 99.2129V114.787H78.3722V99.2129H82.608ZM94.7402 103.882C94.6831 103.324 94.4293 102.891 93.9786 102.582C93.5336 102.267 92.8975 102.11 92.0704 102.11C91.5227 102.11 91.0663 102.174 90.7011 102.3C90.3361 102.427 90.0623 102.602 89.8796 102.825C89.6971 103.043 89.603 103.294 89.5973 103.578C89.5858 103.811 89.6372 104.016 89.7513 104.194C89.8711 104.371 90.0423 104.529 90.2648 104.665C90.4929 104.797 90.7668 104.914 91.0862 105.015C91.4057 105.117 91.7651 105.205 92.1645 105.281L93.6705 105.586C94.5377 105.753 95.3021 105.976 95.9639 106.255C96.6314 106.534 97.1905 106.866 97.6411 107.251C98.0975 107.636 98.4426 108.08 98.6766 108.582C98.9105 109.084 99.0303 109.646 99.036 110.27C99.0303 111.254 98.7508 112.098 98.1973 112.802C97.644 113.507 96.8482 114.047 95.8099 114.422C94.7773 114.797 93.5308 114.985 92.0704 114.985C90.6041 114.985 89.3263 114.79 88.2367 114.399C87.147 114.009 86.2999 113.416 85.6951 112.62C85.0904 111.824 84.7795 110.817 84.7623 109.601H88.8185C88.8528 110.103 89.004 110.521 89.2721 110.856C89.5403 111.19 89.9081 111.444 90.376 111.616C90.8494 111.788 91.3972 111.875 92.019 111.875C92.5895 111.875 93.0744 111.806 93.4738 111.669C93.8788 111.532 94.1896 111.342 94.4065 111.099C94.6233 110.855 94.7345 110.577 94.7402 110.262C94.7345 109.968 94.6318 109.717 94.4321 109.51C94.2325 109.297 93.9244 109.114 93.508 108.962C93.0972 108.805 92.5724 108.66 91.9334 108.529L90.1021 108.148C88.5847 107.839 87.3895 107.34 86.5166 106.65C85.6438 105.956 85.2102 105.018 85.2159 103.837C85.2102 102.873 85.5011 102.029 86.0888 101.304C86.6764 100.579 87.4894 100.014 88.5276 99.6084C89.5659 99.2028 90.7496 99 92.0789 99C93.4366 99 94.6147 99.2053 95.6131 99.616C96.6172 100.022 97.3958 100.592 97.9492 101.327C98.5026 102.062 98.785 102.914 98.7964 103.882H94.7402ZM105.411 99.2129V114.787H101.175V99.2129H105.411ZM124.612 107C124.612 108.714 124.241 110.166 123.499 111.357C122.757 112.549 121.753 113.454 120.487 114.072C119.226 114.691 117.811 115 116.243 115C114.669 115 113.251 114.688 111.99 114.065C110.729 113.441 109.728 112.536 108.986 111.35C108.25 110.158 107.882 108.709 107.882 107C107.882 105.286 108.25 103.834 108.986 102.643C109.728 101.451 110.729 100.546 111.99 99.9278C113.251 99.3093 114.669 99 116.243 99C117.811 99 119.226 99.3093 120.487 99.9278C121.753 100.546 122.757 101.451 123.499 102.643C124.241 103.834 124.612 105.286 124.612 107ZM120.281 107C120.281 105.986 120.12 105.129 119.794 104.43C119.474 103.73 119.012 103.2 118.408 102.84C117.808 102.48 117.087 102.3 116.243 102.3C115.405 102.3 114.683 102.48 114.077 102.84C113.473 103.2 113.008 103.73 112.682 104.43C112.363 105.129 112.204 105.986 112.204 107C112.204 108.014 112.363 108.871 112.682 109.57C113.008 110.27 113.473 110.8 114.077 111.16C114.683 111.52 115.405 111.7 116.243 111.7C117.087 111.7 117.808 111.52 118.408 111.16C119.012 110.8 119.474 110.27 119.794 109.57C120.12 108.871 120.281 108.014 120.281 107ZM142 99.2129V114.787H138.406L131.432 105.798H131.321V114.787H127.085V99.2129H130.73L137.627 108.186H137.773V99.2129H142Z" fill="url(#paint4_linear_76_4846)"/>
<defs>
<linearGradient id="paint0_linear_76_4846" x1="3.71287" y1="25.5581" x2="54.9187" y2="101.615" gradientUnits="userSpaceOnUse">
<stop stop-color="white"/>
<stop offset="0.47" stop-color="#363D4C"/>
<stop offset="1" stop-color="#181D28"/>
</linearGradient>
<linearGradient id="paint1_linear_76_4846" x1="29.0815" y1="32.1771" x2="46.8709" y2="74.7507" gradientUnits="userSpaceOnUse">
<stop stop-color="#FFD549"/>
<stop offset="1" stop-color="#E37727"/>
</linearGradient>
<linearGradient id="paint2_linear_76_4846" x1="34.2346" y1="2.02431" x2="70.72" y2="85.1757" gradientUnits="userSpaceOnUse">
<stop stop-color="#FFD549"/>
<stop offset="1" stop-color="#E37727"/>
</linearGradient>
<linearGradient id="paint3_linear_76_4846" x1="28.5544" y1="28.3359" x2="52.3448" y2="69.5409" gradientUnits="userSpaceOnUse">
<stop stop-color="white"/>
<stop offset="0.47" stop-color="#363D4C"/>
<stop offset="1" stop-color="#181D28"/>
</linearGradient>
<linearGradient id="paint4_linear_76_4846" x1="71.269" y1="89.221" x2="71.269" y2="125.503" gradientUnits="userSpaceOnUse">
<stop stop-color="white"/>
<stop offset="1" stop-color="#495061"/>
</linearGradient>
</defs>
</svg>
